<svg t="1734023104809" class="icon" viewBox="0 0 1024 1024" version="1.1" xmlns="http://www.w3.org/2000/svg"
    p-id="14918" width="32" height="32">
    <path
        d="M622.86506667 711.33866667c0-41.50613333 2.73066667-83.01226667 9.8304-124.5184 101.5808-10.37653333 170.93973333-74.82026667 213.53813333-159.47093334 41.50613333-82.46613333 57.344-184.04693333 53.52106667-268.6976V157.01333333l-2.18453334-44.2368-43.69066666 6.5536c-98.304 14.7456-207.53066667 57.89013333-275.79733334 122.88-25.66826667 24.576-46.42133333 51.88266667-59.52853333 81.92-13.65333333 31.67573333-19.11466667 65.536-13.65333333 102.67306667 6.00746667 43.69066667 28.39893333 89.56586667 69.90506666 137.07946667-9.8304 33.31413333-18.0224 66.08213333-23.48373333 100.48853333-22.39146667-26.2144-48.05973333-50.24426667-75.3664-72.0896 3.82293333-40.96-2.18453333-73.18186667-14.19946667-99.39626667-10.92266667-22.39146667-27.30666667-39.3216-46.96746666-51.33653333-18.56853333-11.4688-40.96-18.56853333-64.44373334-22.39146667-62.80533333-9.28426667-139.81013333 8.73813333-199.33866666 38.22933334L124.24533333 471.04l15.83786667 25.66826667 1.09226667 1.09226666c30.03733333 48.60586667 78.09706667 98.85013333 133.25653333 128.34133334 53.52106667 28.94506667 114.688 38.22933333 172.57813333 9.28426666 22.39146667 22.9376 42.5984 48.05973333 61.16693334 73.728-148.00213333 14.19946667-261.59786667 99.9424-261.59786667 202.61546667h613.85386667c-1.09226667-98.304-101.5808-179.67786667-237.568-200.43093333z m-219.5456-118.51093334c-34.95253333 9.8304-70.99733333 2.18453333-104.31146667-15.83786666-36.59093333-20.20693333-69.90506667-51.33653333-95.57333333-84.65066667 45.32906667-18.0224 96.6656-26.76053333 139.264-20.75306667 16.384 2.18453333 31.1296 7.09973333 43.69066666 14.7456 11.4688 7.09973333 20.75306667 16.93013333 27.30666667 29.4912 5.46133333 9.8304 8.73813333 22.39146667 9.8304 37.6832-39.86773333-25.12213333-82.46613333-47.5136-124.5184-66.62826666l-13.65333333 29.4912c40.41386667 18.56853333 80.82773333 44.78293333 117.9648 76.45866666z m188.96213333-237.02186666c8.73813333-19.6608 22.39146667-38.22933333 40.41386667-55.15946667 46.42133333-43.69066667 116.3264-75.91253333 186.7776-92.84266667-2.73066667 61.71306667-16.93013333 128.34133333-45.32906667 184.04693334-26.76053333 52.97493333-66.62826667 95.0272-122.88 110.31893333 14.7456-50.24426667 34.4064-98.304 59.52853333-140.35626667l-34.4064-20.75306666c-25.12213333 42.05226667-49.152 86.8352-69.35893333 133.25653333-13.65333333-21.2992-21.2992-41.50613333-23.48373333-60.07466667-2.18453333-20.75306667 1.09226667-40.41386667 8.73813333-58.43626666z"
        p-id="14919" fill="#ffffff"></path>
</svg>