<svg t="1733891174899" class="icon" viewBox="0 0 1024 1024" version="1.1" xmlns="http://www.w3.org/2000/svg"
    p-id="13722" width="32" height="32">
    <path
        d="M505.15 953.62h-45.68c-25.89 0-45.68-19.8-45.68-45.68V770.88c0-25.89 19.8-45.68 45.68-45.68h45.68c25.89 0 45.68 19.8 45.68 45.68v30.46h-30.46v-30.46c0-9.14-6.09-15.23-15.23-15.23h-45.68c-9.14 0-15.23 6.09-15.23 15.23v50.26c10.66-3.05 21.32-4.57 30.46-4.57h30.46c25.89 0 45.68 19.8 45.68 45.68v45.69c0 25.88-19.79 45.68-45.68 45.68z m-60.92-98.99v53.3c0 9.14 6.09 15.23 15.23 15.23h45.68c9.14 0 15.23-6.09 15.23-15.23v-45.69c0-9.14-6.09-15.23-15.23-15.23h-30.46c-10.65 0.01-22.83 3.06-30.45 7.62z m213.2 98.99h-45.69c-25.88 0-45.68-19.8-45.68-45.68V770.88c0-25.89 19.8-45.68 45.68-45.68h45.69c25.88 0 45.68 19.8 45.68 45.68v137.06c0.01 25.88-19.79 45.68-45.68 45.68z m-45.69-197.97c-9.13 0-15.23 6.09-15.23 15.23v137.06c0 9.14 6.09 15.23 15.23 15.23h45.69c9.14 0 15.23-6.09 15.23-15.23V770.88c0-9.14-6.09-15.23-15.23-15.23h-45.69z m-304.56 60.91h76.15v30.46h-76.15v-30.46z m0 0"
        fill="#ffffff" p-id="13723"></path>
    <path
        d="M352.87 953.62h-45.69c-25.88 0-45.68-19.8-45.68-45.68v-15.23h30.46v15.23c0 9.14 6.09 15.23 15.23 15.23h45.69c9.13 0 15.23-6.09 15.23-15.23V770.88c0-9.14-6.09-15.23-15.23-15.23h-45.69c-9.14 0-15.23 6.09-15.23 15.23v15.23H261.5v-15.23c0-25.89 19.8-45.68 45.68-45.68h45.69c25.89 0 45.68 19.8 45.68 45.68v137.06c0 25.88-19.8 45.68-45.68 45.68zM802.1 816.56c-38.07 0-68.53-30.46-68.53-68.53s30.46-68.53 68.53-68.53 68.53 30.46 68.53 68.53c0 38.08-30.46 68.53-68.53 68.53z m0-106.59c-21.32 0-38.07 16.75-38.07 38.07s16.75 38.07 38.07 38.07 38.07-16.75 38.07-38.07-16.75-38.07-38.07-38.07z m-190.36-60.91h-100.5C255.4 649.06 62 560.73 62 443.47c0-70.05 57.87-127.92 162.95-162.94l9.14 28.93c-91.37 30.46-143.15 79.19-143.15 134.01 1.52 97.46 185.78 175.13 420.3 175.13h100.5v30.46z m91.38-18.28l-6.09-30.46c144.67-25.89 234.52-86.8 234.52-156.85 0-62.43-65.48-115.74-178.17-146.19l7.61-28.93C890.42 303.37 962 364.28 962 443.47c0 86.8-95.94 156.85-258.88 187.31z m0 0"
        fill="#ffffff" p-id="13724"></path>
    <path
        d="M561.49 705.4l-21.32-21.32 50.26-50.25-50.26-50.26 21.32-21.32 71.57 71.57-71.57 71.58z m0 0M489.92 527.23c-126.4 0-228.43-102.03-228.43-228.42 0-126.4 102.03-228.43 228.43-228.43s228.43 102.03 228.43 228.43c-0.01 126.39-102.03 228.42-228.43 228.42z m0-426.4c-109.64 0-197.97 88.33-197.97 197.97s88.33 197.97 197.97 197.97 197.97-88.32 197.97-197.97c0-109.64-88.33-197.97-197.97-197.97z m0 0"
        fill="#ffffff" p-id="13725"></path>
    <path
        d="M489.92 451.08c-83.75 0-152.28-68.53-152.28-152.28 0-10.66 1.52-21.32 3.04-31.98l4.57-22.84 18.27 12.18c10.66 7.61 21.32 10.66 33.5 10.66 33.5 0 60.92-27.41 60.92-60.91 0-12.18-3.05-24.36-10.66-33.5l-12.19-18.27 22.85-4.57c10.65-1.52 21.32-3.05 31.98-3.05 83.75 0 152.29 68.53 152.29 152.29-0.01 83.75-68.54 152.27-152.29 152.27zM368.09 294.23v4.57c0 67 54.82 121.83 121.83 121.83 67.01 0 121.83-54.82 121.83-121.83 0-68.53-57.87-124.87-126.39-121.83 3.05 9.14 4.57 19.8 4.57 30.46 0 50.26-41.12 91.37-91.37 91.37-10.67 0-21.33-1.52-30.47-4.57z m0 0"
        fill="#ffffff" p-id="13726"></path>
</svg>