<svg t="1733891036842" class="icon" viewBox="0 0 1024 1024" version="1.1" xmlns="http://www.w3.org/2000/svg" p-id="6906"
    width="32" height="32">
    <path
        d="M953.51 1024H31.76v-77.46h960.48V1024zM713.39 884.57V373.35c0-26.33 17-32.53 38.73-51.12 38.73-31.01 125.48-106.89 125.48-106.89l72.81 40.27 41.83-97.6v726.56z m-62-449.25v449.25h-15.46c-82.11 0-153.37 1.55-232.37 0h-31V435.32s91.4 54.22 134.78 51.12c44.94-3.1 144.08-51.12 144.08-51.12z m220-286.6c-10.84 9.29-21.68 15.49-31 24.78-94.5 80.57-189 162.67-281.95 243.22-24.78 21.69-48 24.79-75.91 6.2-63.48-40.28-130.09-75.91-192.06-117.7-35.63-24.79-60.42-21.69-89.85 7.74-26.34 26.34-57.32 48-85.21 71.27-20.13 15.49-41.82 24.79-62 3.1s-6.2-40.28 12.39-55.77c46.48-38.73 92.95-75.91 139.43-114.64 23.23-20.14 43.37-18.59 69.71-3.1 79 49.58 158 96.05 240.12 145.62 100.73-86.79 199.88-173.55 302.12-261.85-15.49-15.49-26.33-26.37-41.82-43.37 71.26-17 137.88-34.09 212.23-54.22-20.14 71.22-37.18 133.22-55.77 199.84-21.68-17-40.28-32.53-60.42-51.12zM245.55 348.56c58.86 17 65.06 49.57 65.06 102.24 1.55 123.94 0 308.29 0 433.77H31.76V529.81c0-7.75 18.59-21.69 26.33-27.89 61.97-51.11 125.49-102.24 187.46-153.36z"
        p-id="6907" fill="#ffffff"></path>
</svg>